# xmcd
#
# Track frame offsets:
#	150
#	15487
#	32774
#	49536
#	65548
#	82010
#	98705
#	124709
#	142071
#	158100
#	175147
#	190867
#	206729
#	225216
#
# Disc length: 3244 seconds
#
# Revision: 2
# Processed by: cddbd v1.5.2PL0 Copyright (c) Steve Scherf et al.
# Submitted via: EasyCDDAExtractor 7.0.3.1
#
DISCID=b20caa0e
DTITLE=Various Artist - Hitz 2009 Vol. 1
DYEAR=2009
DGENRE=Country
TTITLE0=Taylor Swift - White Horse
TTITLE1=Keith Urban - Sweet Thing 
TTITLE2=Jason Aldean - She's Country
TTITLE3=Emerson Drive - Belongs To You
TTITLE4=Darius Rucker - It Won't Be Like This For Long
TTITLE5=Jessica Simpson - Remember That
TTITLE6=Ricky Skaggs and Raconteurs - Old Enough
TTITLE7=John Rich - Another You
TTITLE8=Crystal Shawanda - My Roots Are Showing
TTITLE9=Keith Anderson - Somebody Needs A Hug
TTITLE10=Whitney Duncan - The Bed That You Made 
TTITLE11=Adam Gregory - What It Takes
TTITLE12=Dean Brody  - Brothers
TTITLE13=Little Big Town - Good Lord Willing
EXTD=
EXTT0=
EXTT1=
EXTT2=
EXTT3=
EXTT4=
EXTT5=
EXTT6=
EXTT7=
EXTT8=
EXTT9=
EXTT10=
EXTT11=
EXTT12=
EXTT13=
PLAYORDER=
